<svg xmlns="http://www.w3.org/2000/svg" xmlns:xlink="http://www.w3.org/1999/xlink" width="1080" zoomAndPan="magnify" viewBox="0 0 810 809.999993" height="1080" preserveAspectRatio="xMidYMid meet" version="1.0"><defs><g/></defs><g fill="#000000" fill-opacity="1"><g transform="translate(406.827308, 626.200592)"><g><path d="M -22.890625 45.078125 L -21.0625 28.140625 L -47.9375 25.234375 L -46.984375 16.484375 L -20.109375 19.390625 L -17.8125 -1.921875 L -7.46875 -0.8125 L -13.484375 54.859375 L -54.140625 50.46875 L -53.203125 41.796875 Z M -22.890625 45.078125 "/></g></g></g><g fill="#000000" fill-opacity="1"><g transform="translate(361.81253, 622.139089)"><g><path d="M -58.90625 25.53125 L -45.5 -15.03125 L -36.46875 -12.046875 L -38.171875 -6.890625 C -36.046875 -8.203125 -33.679688 -8.972656 -31.078125 -9.203125 C -28.472656 -9.441406 -25.851562 -9.128906 -23.21875 -8.265625 C -17.800781 -6.472656 -14.03125 -3.554688 -11.90625 0.484375 C -9.789062 4.523438 -9.710938 9.507812 -11.671875 15.4375 L -19.328125 38.609375 L -28.828125 35.46875 L -21.59375 13.59375 C -20.394531 9.945312 -20.316406 6.953125 -21.359375 4.609375 C -22.410156 2.265625 -24.453125 0.585938 -27.484375 -0.421875 C -30.878906 -1.535156 -33.925781 -1.375 -36.625 0.0625 C -39.320312 1.507812 -41.320312 4.210938 -42.625 8.171875 L -49.40625 28.671875 Z M -58.90625 25.53125 "/></g></g></g><g fill="#000000" fill-opacity="1"><g transform="translate(314.572637, 605.606177)"><g><path d="M -32.984375 49.796875 L -41.875 45.21875 L -14.734375 -7.578125 L -5.84375 -3 Z M -32.984375 49.796875 "/></g></g></g><g fill="#000000" fill-opacity="1"><g transform="translate(296.289301, 596.345559)"><g><path d="M -37.4375 46.515625 L -45.875 41.140625 L -13.96875 -8.90625 L -5.53125 -3.53125 Z M -37.4375 46.515625 "/></g></g></g><g fill="#000000" fill-opacity="1"><g transform="translate(279.165498, 585.869101)"><g><path d="M -19.953125 17.859375 L -37.125 4.09375 L -31.921875 -2.40625 L -14.75 11.359375 Z M -19.953125 17.859375 "/></g></g></g><g fill="#000000" fill-opacity="1"><g transform="translate(257.886774, 570.302958)"><g><path d="M -16.046875 -19.03125 C -13.160156 -15.820312 -10.820312 -12.304688 -9.03125 -8.484375 C -7.25 -4.671875 -6.332031 -1.21875 -6.28125 1.875 L -14.6875 4.59375 C -14.875 1.6875 -15.65625 -1.382812 -17.03125 -4.625 C -18.40625 -7.875 -20.21875 -10.75 -22.46875 -13.25 C -25.25 -16.34375 -27.820312 -18.207031 -30.1875 -18.84375 C -32.550781 -19.476562 -34.546875 -19.066406 -36.171875 -17.609375 C -37.359375 -16.535156 -37.953125 -15.226562 -37.953125 -13.6875 C -37.960938 -12.144531 -37.597656 -10.519531 -36.859375 -8.8125 C -36.117188 -7.101562 -35.007812 -4.875 -33.53125 -2.125 C -31.4375 1.738281 -29.882812 4.988281 -28.875 7.625 C -27.863281 10.257812 -27.523438 13.003906 -27.859375 15.859375 C -28.203125 18.710938 -29.738281 21.367188 -32.46875 23.828125 C -34.769531 25.898438 -37.421875 27.15625 -40.421875 27.59375 C -43.429688 28.03125 -46.625 27.488281 -50 25.96875 C -53.382812 24.457031 -56.71875 21.878906 -60 18.234375 C -62.28125 15.691406 -64.207031 12.90625 -65.78125 9.875 C -67.351562 6.851562 -68.347656 3.914062 -68.765625 1.0625 L -60.578125 -1.90625 C -59.992188 0.882812 -59.085938 3.519531 -57.859375 6 C -56.640625 8.476562 -55.191406 10.648438 -53.515625 12.515625 C -50.765625 15.566406 -48.207031 17.375 -45.84375 17.9375 C -43.476562 18.5 -41.441406 18.015625 -39.734375 16.484375 C -38.546875 15.410156 -37.957031 14.109375 -37.96875 12.578125 C -37.976562 11.046875 -38.351562 9.425781 -39.09375 7.71875 C -39.832031 6.019531 -40.941406 3.789062 -42.421875 1.03125 C -44.492188 -2.707031 -46.035156 -5.910156 -47.046875 -8.578125 C -48.066406 -11.253906 -48.410156 -14.007812 -48.078125 -16.84375 C -47.753906 -19.675781 -46.242188 -22.304688 -43.546875 -24.734375 C -41.242188 -26.804688 -38.597656 -28.054688 -35.609375 -28.484375 C -32.628906 -28.910156 -29.441406 -28.351562 -26.046875 -26.8125 C -22.648438 -25.269531 -19.316406 -22.675781 -16.046875 -19.03125 Z M -16.046875 -19.03125 "/></g></g></g><g fill="#000000" fill-opacity="1"><g transform="translate(227.639077, 536.231156)"><g><path d="M -19.171875 -26.015625 C -17.734375 -25.535156 -16.363281 -24.710938 -15.0625 -23.546875 C -13.769531 -22.378906 -12.625 -21.007812 -11.625 -19.4375 C -9.113281 -15.46875 -8.210938 -11.75 -8.921875 -8.28125 C -9.628906 -4.8125 -11.96875 -1.820312 -15.9375 0.6875 L -33.328125 11.671875 L -29.5625 17.640625 L -36.3125 21.921875 L -40.078125 15.953125 L -48.328125 21.15625 L -53.671875 12.703125 L -45.421875 7.5 L -51.53125 -2.171875 L -44.78125 -6.453125 L -38.671875 3.21875 L -21.484375 -7.640625 C -19.722656 -8.753906 -18.648438 -10.023438 -18.265625 -11.453125 C -17.878906 -12.890625 -18.203125 -14.421875 -19.234375 -16.046875 C -20.429688 -17.941406 -21.921875 -19.207031 -23.703125 -19.84375 Z M -19.171875 -26.015625 "/></g></g></g><g fill="#000000" fill-opacity="1"><g transform="translate(211.119659, 511.929999)"><g><path d="M -48.6875 -4.34375 C -51.132812 -10.132812 -51.613281 -15.148438 -50.125 -19.390625 C -48.632812 -23.640625 -45.09375 -26.941406 -39.5 -29.296875 L -16.40625 -39 L -12.75 -30.296875 L -17.546875 -28.28125 C -15.347656 -27.882812 -13.351562 -26.832031 -11.5625 -25.125 C -9.769531 -23.414062 -8.253906 -21.085938 -7.015625 -18.140625 C -5.773438 -15.191406 -5.191406 -12.398438 -5.265625 -9.765625 C -5.347656 -7.128906 -6.03125 -4.828125 -7.3125 -2.859375 C -8.601562 -0.898438 -10.378906 0.554688 -12.640625 1.515625 C -16.179688 3.003906 -19.570312 2.878906 -22.8125 1.140625 C -26.0625 -0.597656 -28.875 -4.289062 -31.25 -9.9375 L -35.53125 -20.109375 L -36.125 -19.859375 C -38.875 -18.703125 -40.640625 -16.988281 -41.421875 -14.71875 C -42.203125 -12.457031 -41.910156 -9.707031 -40.546875 -6.46875 C -39.609375 -4.257812 -38.347656 -2.226562 -36.765625 -0.375 C -35.191406 1.476562 -33.476562 2.882812 -31.625 3.84375 L -36.8125 10.28125 C -39.25 8.875 -41.492188 6.894531 -43.546875 4.34375 C -45.609375 1.800781 -47.320312 -1.09375 -48.6875 -4.34375 Z M -14.53125 -17.21875 C -15.5 -19.53125 -16.890625 -21.363281 -18.703125 -22.71875 C -20.515625 -24.070312 -22.5625 -24.703125 -24.84375 -24.609375 L -29.40625 -22.6875 L -25.40625 -13.1875 C -23.164062 -7.875 -20.304688 -5.945312 -16.828125 -7.40625 C -15.148438 -8.113281 -14.097656 -9.335938 -13.671875 -11.078125 C -13.253906 -12.816406 -13.539062 -14.863281 -14.53125 -17.21875 Z M -14.53125 -17.21875 "/></g></g></g><g fill="#000000" fill-opacity="1"><g transform="translate(193.962888, 472.180137)"><g><path d="M -4.84375 -25.703125 C -3.925781 -21.367188 -4.019531 -17.285156 -5.125 -13.453125 C -6.226562 -9.628906 -8.207031 -6.410156 -11.0625 -3.796875 C -13.914062 -1.191406 -17.40625 0.546875 -21.53125 1.421875 C -25.65625 2.285156 -29.535156 2.09375 -33.171875 0.84375 C -36.804688 -0.394531 -39.898438 -2.53125 -42.453125 -5.5625 C -45.003906 -8.601562 -46.742188 -12.316406 -47.671875 -16.703125 C -48.535156 -20.828125 -48.457031 -24.613281 -47.4375 -28.0625 C -46.425781 -31.519531 -44.515625 -34.363281 -41.703125 -36.59375 L -35.734375 -30 C -37.421875 -28.382812 -38.554688 -26.578125 -39.140625 -24.578125 C -39.722656 -22.578125 -39.789062 -20.503906 -39.34375 -18.359375 C -38.570312 -14.710938 -36.742188 -11.9375 -33.859375 -10.03125 C -30.984375 -8.132812 -27.566406 -7.601562 -23.609375 -8.4375 C -19.640625 -9.28125 -16.71875 -11.140625 -14.84375 -14.015625 C -12.96875 -16.890625 -12.421875 -20.175781 -13.203125 -23.875 C -13.648438 -26.019531 -14.546875 -27.890625 -15.890625 -29.484375 C -17.234375 -31.078125 -19 -32.269531 -21.1875 -33.0625 L -18.375 -41.515625 C -14.914062 -40.546875 -12.007812 -38.6875 -9.65625 -35.9375 C -7.300781 -33.195312 -5.695312 -29.785156 -4.84375 -25.703125 Z M -4.84375 -25.703125 "/></g></g></g><g fill="#000000" fill-opacity="1"><g transform="translate(184.77284, 432.09828)"><g><path d="M -18.609375 -23.78125 L -11.484375 -16.421875 L -0.203125 -16.5625 L -0.078125 -6.5625 L -59.4375 -5.84375 L -59.5625 -15.84375 L -23.71875 -16.28125 L -43.171875 -36.765625 L -43.3125 -48.765625 L -25.171875 -31.140625 L -0.625 -50.953125 L -0.46875 -38.796875 Z M -18.609375 -23.78125 "/></g></g></g><g fill="#000000" fill-opacity="1"><g transform="translate(184.949728, 385.382224)"><g/></g></g><g fill="#000000" fill-opacity="1"><g transform="translate(184.925256, 367.87556)"><g><path d="M -51.015625 -24.296875 L -43.515625 -47.609375 C -41.691406 -53.285156 -38.960938 -57.976562 -35.328125 -61.6875 C -31.703125 -65.394531 -27.476562 -67.816406 -22.65625 -68.953125 C -17.84375 -70.097656 -12.796875 -69.820312 -7.515625 -68.125 C -2.242188 -66.4375 2.019531 -63.722656 5.28125 -59.984375 C 8.539062 -56.242188 10.5625 -51.804688 11.34375 -46.671875 C 12.132812 -41.546875 11.617188 -36.144531 9.796875 -30.46875 L 2.296875 -7.15625 Z M 1.265625 -32.6875 C 2.523438 -36.601562 2.878906 -40.289062 2.328125 -43.75 C 1.785156 -47.207031 0.390625 -50.175781 -1.859375 -52.65625 C -4.109375 -55.132812 -7.0625 -56.960938 -10.71875 -58.140625 C -14.375 -59.316406 -17.84375 -59.550781 -21.125 -58.84375 C -24.414062 -58.144531 -27.285156 -56.546875 -29.734375 -54.046875 C -32.179688 -51.554688 -34.035156 -48.351562 -35.296875 -44.4375 L -39.453125 -31.5 L -2.890625 -19.75 Z M 1.265625 -32.6875 "/></g></g></g><g fill="#000000" fill-opacity="1"><g transform="translate(203.370718, 311.137098)"><g><path d="M 6.078125 -50.90625 C 6.671875 -50.539062 7.484375 -49.988281 8.515625 -49.25 L -8.796875 -20.5625 C -5.796875 -19.4375 -2.867188 -19.457031 -0.015625 -20.625 C 2.835938 -21.789062 5.210938 -23.945312 7.109375 -27.09375 C 9.535156 -31.113281 10.210938 -35.226562 9.140625 -39.4375 L 17.1875 -40.84375 C 18.15625 -38.007812 18.382812 -35.03125 17.875 -31.90625 C 17.363281 -28.789062 16.15625 -25.65625 14.25 -22.5 C 11.820312 -18.476562 8.882812 -15.421875 5.4375 -13.328125 C 2 -11.242188 -1.644531 -10.234375 -5.5 -10.296875 C -9.363281 -10.359375 -13.097656 -11.476562 -16.703125 -13.65625 C -20.265625 -15.800781 -22.984375 -18.546875 -24.859375 -21.890625 C -26.742188 -25.234375 -27.613281 -28.820312 -27.46875 -32.65625 C -27.332031 -36.5 -26.175781 -40.222656 -24 -43.828125 C -21.851562 -47.390625 -19.144531 -50.097656 -15.875 -51.953125 C -12.601562 -53.816406 -9.0625 -54.671875 -5.25 -54.515625 C -1.445312 -54.367188 2.328125 -53.164062 6.078125 -50.90625 Z M -17.15625 -39.703125 C -18.8125 -36.960938 -19.394531 -34.15625 -18.90625 -31.28125 C -18.425781 -28.40625 -16.960938 -25.945312 -14.515625 -23.90625 L -1.984375 -44.65625 C -4.859375 -45.894531 -7.679688 -46.078125 -10.453125 -45.203125 C -13.234375 -44.328125 -15.46875 -42.492188 -17.15625 -39.703125 Z M -17.15625 -39.703125 "/></g></g></g><g fill="#000000" fill-opacity="1"><g transform="translate(226.045683, 272.926331)"><g><path d="M -0.421875 -63.1875 L 18.953125 -20.921875 L 12.03125 -13.28125 L -31.9375 -28.375 L -24.953125 -36.078125 L 7.4375 -24.671875 L -6.875 -56.0625 Z M -0.421875 -63.1875 "/></g></g></g><g fill="#000000" fill-opacity="1"><g transform="translate(253.022118, 242.116323)"><g><path d="M 24.75 -44.890625 C 25.164062 -44.335938 25.71875 -43.515625 26.40625 -42.421875 L -0.421875 -22.34375 C 1.921875 -20.1875 4.632812 -19.113281 7.71875 -19.125 C 10.800781 -19.132812 13.816406 -20.242188 16.765625 -22.453125 C 20.523438 -25.265625 22.695312 -28.820312 23.28125 -33.125 L 31.265625 -31.390625 C 31.097656 -28.390625 30.191406 -25.539062 28.546875 -22.84375 C 26.910156 -20.15625 24.617188 -17.710938 21.671875 -15.515625 C 17.910156 -12.691406 14.035156 -10.957031 10.046875 -10.3125 C 6.066406 -9.675781 2.300781 -10.109375 -1.25 -11.609375 C -4.800781 -13.117188 -7.835938 -15.554688 -10.359375 -18.921875 C -12.847656 -22.253906 -14.332031 -25.816406 -14.8125 -29.609375 C -15.300781 -33.410156 -14.757812 -37.066406 -13.1875 -40.578125 C -11.625 -44.097656 -9.15625 -47.117188 -5.78125 -49.640625 C -2.445312 -52.128906 1.082031 -53.617188 4.8125 -54.109375 C 8.539062 -54.609375 12.140625 -54.070312 15.609375 -52.5 C 19.078125 -50.9375 22.125 -48.398438 24.75 -44.890625 Z M -0.984375 -43.234375 C -3.546875 -41.316406 -5.144531 -38.9375 -5.78125 -36.09375 C -6.414062 -33.25 -5.984375 -30.425781 -4.484375 -27.625 L 14.921875 -42.15625 C 12.722656 -44.363281 10.171875 -45.582031 7.265625 -45.8125 C 4.367188 -46.039062 1.617188 -45.179688 -0.984375 -43.234375 Z M -0.984375 -43.234375 "/></g></g></g><g fill="#000000" fill-opacity="1"><g transform="translate(289.930634, 215.334055)"><g><path d="M -22.5 -55.328125 L -13.703125 -60.09375 L 14.5625 -7.890625 L 5.765625 -3.125 Z M -22.5 -55.328125 "/></g></g></g><g fill="#000000" fill-opacity="1"><g transform="translate(305.992743, 205.070513)"><g><path d="M 24.421875 -8.21875 C 20.359375 -6.75 16.375 -6.304688 12.46875 -6.890625 C 8.570312 -7.472656 5.144531 -9 2.1875 -11.46875 C -0.769531 -13.945312 -2.960938 -17.164062 -4.390625 -21.125 C -5.828125 -25.09375 -6.191406 -28.957031 -5.484375 -32.71875 C -4.773438 -36.488281 -3.101562 -39.84375 -0.46875 -42.78125 C 2.15625 -45.71875 5.5 -47.921875 9.5625 -49.390625 C 13.664062 -50.867188 17.664062 -51.316406 21.5625 -50.734375 C 25.46875 -50.148438 28.894531 -48.632812 31.84375 -46.1875 C 34.789062 -43.75 36.984375 -40.546875 38.421875 -36.578125 C 39.847656 -32.617188 40.210938 -28.738281 39.515625 -24.9375 C 38.816406 -21.144531 37.148438 -17.78125 34.515625 -14.84375 C 31.890625 -11.90625 28.523438 -9.695312 24.421875 -8.21875 Z M 21.515625 -16.28125 C 24.972656 -17.53125 27.414062 -19.710938 28.84375 -22.828125 C 30.269531 -25.953125 30.304688 -29.394531 28.953125 -33.15625 C 27.597656 -36.914062 25.375 -39.539062 22.28125 -41.03125 C 19.1875 -42.53125 15.910156 -42.65625 12.453125 -41.40625 C 8.984375 -40.15625 6.550781 -37.972656 5.15625 -34.859375 C 3.757812 -31.742188 3.738281 -28.304688 5.09375 -24.546875 C 6.445312 -20.785156 8.65625 -18.15625 11.71875 -16.65625 C 14.78125 -15.15625 18.046875 -15.03125 21.515625 -16.28125 Z M 21.515625 -16.28125 "/></g></g></g><g fill="#000000" fill-opacity="1"><g transform="translate(348.775267, 188.777146)"><g><path d="M 24.25 -46.828125 C 28.375 -47.378906 32.179688 -46.972656 35.671875 -45.609375 C 39.160156 -44.253906 42.050781 -42.054688 44.34375 -39.015625 C 46.632812 -35.984375 48.066406 -32.328125 48.640625 -28.046875 C 49.210938 -23.765625 48.789062 -19.847656 47.375 -16.296875 C 45.96875 -12.742188 43.757812 -9.847656 40.75 -7.609375 C 37.738281 -5.378906 34.171875 -3.988281 30.046875 -3.4375 C 24.335938 -2.675781 19.566406 -3.976562 15.734375 -7.34375 L 18.484375 13.1875 L 8.5625 14.5 L 0.84375 -43.21875 L 10.28125 -44.46875 L 11.015625 -38.921875 C 12.398438 -41.140625 14.222656 -42.914062 16.484375 -44.25 C 18.753906 -45.582031 21.34375 -46.441406 24.25 -46.828125 Z M 27.8125 -11.78125 C 31.445312 -12.269531 34.28125 -13.882812 36.3125 -16.625 C 38.34375 -19.375 39.09375 -22.734375 38.5625 -26.703125 C 38.03125 -30.671875 36.425781 -33.710938 33.75 -35.828125 C 31.070312 -37.941406 27.914062 -38.753906 24.28125 -38.265625 C 21.894531 -37.941406 19.820312 -37.113281 18.0625 -35.78125 C 16.3125 -34.445312 15.015625 -32.703125 14.171875 -30.546875 C 13.328125 -28.390625 13.082031 -25.988281 13.4375 -23.34375 C 13.789062 -20.695312 14.65625 -18.445312 16.03125 -16.59375 C 17.40625 -14.738281 19.113281 -13.390625 21.15625 -12.546875 C 23.207031 -11.710938 25.425781 -11.457031 27.8125 -11.78125 Z M 27.8125 -11.78125 "/></g></g></g><g fill="#000000" fill-opacity="1"><g transform="translate(397.396472, 181.937376)"><g><path d="M 48.203125 -17.46875 C 48.148438 -16.769531 48.019531 -15.789062 47.8125 -14.53125 L 14.40625 -17.109375 C 14.738281 -13.910156 16.070312 -11.300781 18.40625 -9.28125 C 20.738281 -7.257812 23.738281 -6.109375 27.40625 -5.828125 C 32.09375 -5.460938 36.070312 -6.710938 39.34375 -9.578125 L 44.21875 -3.015625 C 42.113281 -0.859375 39.550781 0.6875 36.53125 1.625 C 33.519531 2.5625 30.179688 2.890625 26.515625 2.609375 C 21.828125 2.242188 17.773438 0.992188 14.359375 -1.140625 C 10.941406 -3.273438 8.390625 -6.078125 6.703125 -9.546875 C 5.023438 -13.023438 4.347656 -16.863281 4.671875 -21.0625 C 4.992188 -25.207031 6.222656 -28.867188 8.359375 -32.046875 C 10.503906 -35.222656 13.320312 -37.613281 16.8125 -39.21875 C 20.3125 -40.820312 24.164062 -41.460938 28.375 -41.140625 C 32.519531 -40.828125 36.15625 -39.625 39.28125 -37.53125 C 42.414062 -35.445312 44.769531 -32.671875 46.34375 -29.203125 C 47.914062 -25.742188 48.535156 -21.832031 48.203125 -17.46875 Z M 27.75 -33.15625 C 24.550781 -33.40625 21.773438 -32.671875 19.421875 -30.953125 C 17.078125 -29.234375 15.546875 -26.820312 14.828125 -23.71875 L 39 -21.859375 C 38.8125 -24.972656 37.695312 -27.570312 35.65625 -29.65625 C 33.625 -31.738281 30.988281 -32.90625 27.75 -33.15625 Z M 27.75 -33.15625 "/></g></g></g><g fill="#000000" fill-opacity="1"><g transform="translate(442.293045, 185.685641)"><g><path d="M 24.421875 -31.515625 C 28.304688 -35.160156 33.769531 -36.109375 40.8125 -34.359375 L 38.5 -25.125 C 37.707031 -25.488281 36.972656 -25.753906 36.296875 -25.921875 C 32.523438 -26.859375 29.304688 -26.488281 26.640625 -24.8125 C 23.972656 -23.144531 22.125 -20.242188 21.09375 -16.109375 L 16.078125 4 L 6.375 1.59375 L 16.703125 -39.859375 L 25.921875 -37.5625 Z M 24.421875 -31.515625 "/></g></g></g><g fill="#000000" fill-opacity="1"><g transform="translate(471.905072, 193.283908)"><g><path d="M 8.984375 3.890625 C 7.285156 3.265625 6.046875 2.140625 5.265625 0.515625 C 4.492188 -1.109375 4.441406 -2.816406 5.109375 -4.609375 C 5.785156 -6.472656 6.921875 -7.757812 8.515625 -8.46875 C 10.109375 -9.1875 11.785156 -9.222656 13.546875 -8.578125 C 15.296875 -7.941406 16.546875 -6.832031 17.296875 -5.25 C 18.046875 -3.675781 18.082031 -1.957031 17.40625 -0.09375 C 16.738281 1.695312 15.59375 2.960938 13.96875 3.703125 C 12.34375 4.453125 10.679688 4.515625 8.984375 3.890625 Z M 8.984375 3.890625 "/></g></g></g><g fill="#000000" fill-opacity="1"><g transform="translate(488.069494, 199.036984)"><g/></g></g><g fill="#000000" fill-opacity="1"><g transform="translate(504.833248, 201.706928)"><g><path d="M 104.90625 10.75 L 55.84375 43.515625 L 47.140625 36.734375 L 61.6875 -4.453125 L 25.109375 19.578125 L 16.34375 12.734375 L 36.125 -42.84375 L 44.640625 -36.203125 L 29.46875 5.921875 L 67.046875 -18.75 L 74.609375 -12.84375 L 59.484375 29.625 L 97.078125 4.65625 Z M 104.90625 10.75 "/></g></g></g><g fill="#000000" fill-opacity="1"><g transform="translate(569.631718, 254.548322)"><g><path d="M 44.46875 25.5 C 43.90625 25.914062 43.078125 26.457031 41.984375 27.125 L 22.359375 -0.046875 C 20.148438 2.265625 19.023438 4.960938 18.984375 8.046875 C 18.941406 11.128906 20 14.160156 22.15625 17.140625 C 24.90625 20.953125 28.425781 23.1875 32.71875 23.84375 L 30.859375 31.796875 C 27.859375 31.578125 25.023438 30.617188 22.359375 28.921875 C 19.703125 27.234375 17.296875 24.898438 15.140625 21.921875 C 12.390625 18.117188 10.726562 14.21875 10.15625 10.21875 C 9.582031 6.226562 10.078125 2.472656 11.640625 -1.046875 C 13.203125 -4.578125 15.6875 -7.570312 19.09375 -10.03125 C 22.46875 -12.46875 26.0625 -13.894531 29.875 -14.3125 C 33.6875 -14.738281 37.332031 -14.132812 40.8125 -12.5 C 44.289062 -10.875 47.265625 -8.347656 49.734375 -4.921875 C 52.171875 -1.554688 53.601562 1.992188 54.03125 5.734375 C 54.457031 9.472656 53.859375 13.0625 52.234375 16.5 C 50.609375 19.945312 48.019531 22.945312 44.46875 25.5 Z M 43.25 -0.234375 C 41.375 -2.835938 39.019531 -4.476562 36.1875 -5.15625 C 33.351562 -5.84375 30.519531 -5.460938 27.6875 -4.015625 L 41.890625 15.640625 C 44.140625 13.484375 45.40625 10.957031 45.6875 8.0625 C 45.96875 5.164062 45.15625 2.398438 43.25 -0.234375 Z M 43.25 -0.234375 "/></g></g></g><g fill="#000000" fill-opacity="1"><g transform="translate(596.119865, 289.736778)"><g><path d="M 51.734375 10.21875 C 53.421875 14.03125 54.09375 17.800781 53.75 21.53125 C 53.414062 25.257812 52.113281 28.644531 49.84375 31.6875 C 47.570312 34.738281 44.460938 37.132812 40.515625 38.875 C 36.554688 40.625 32.671875 41.316406 28.859375 40.953125 C 25.054688 40.585938 21.664062 39.269531 18.6875 37 C 15.707031 34.738281 13.375 31.703125 11.6875 27.890625 C 10.507812 25.210938 9.894531 22.554688 9.84375 19.921875 C 9.789062 17.296875 10.351562 14.8125 11.53125 12.46875 L 6.484375 14.703125 L 2.65625 6 L 56.96875 -17.96875 L 61 -8.8125 L 41.015625 0.015625 C 43.398438 0.816406 45.503906 2.082031 47.328125 3.8125 C 49.148438 5.550781 50.617188 7.6875 51.734375 10.21875 Z M 19.078125 23.40625 C 20.554688 26.769531 22.894531 29.039062 26.09375 30.21875 C 29.300781 31.40625 32.738281 31.191406 36.40625 29.578125 C 40.0625 27.960938 42.53125 25.570312 43.8125 22.40625 C 45.101562 19.25 45.007812 15.988281 43.53125 12.625 C 42.550781 10.425781 41.175781 8.671875 39.40625 7.359375 C 37.632812 6.046875 35.59375 5.285156 33.28125 5.078125 C 30.976562 4.878906 28.609375 5.316406 26.171875 6.390625 C 23.722656 7.460938 21.800781 8.921875 20.40625 10.765625 C 19.007812 12.609375 18.191406 14.625 17.953125 16.8125 C 17.722656 19.007812 18.097656 21.207031 19.078125 23.40625 Z M 19.078125 23.40625 "/></g></g></g><g fill="#000000" fill-opacity="1"><g transform="translate(615.645821, 336.288124)"><g/></g></g><g fill="#000000" fill-opacity="1"><g transform="translate(622.418867, 352.433306)"><g><path d="M 56.4375 2.765625 L 58.5 27.171875 C 59 33.117188 58.289062 38.5 56.375 43.3125 C 54.457031 48.125 51.492188 51.988281 47.484375 54.90625 C 43.472656 57.820312 38.707031 59.515625 33.1875 59.984375 C 27.664062 60.453125 22.675781 59.582031 18.21875 57.375 C 13.769531 55.175781 10.195312 51.863281 7.5 47.4375 C 4.800781 43.019531 3.203125 37.835938 2.703125 31.890625 L 0.640625 7.484375 Z M 11.421875 30.671875 C 11.765625 34.765625 12.851562 38.296875 14.6875 41.265625 C 16.519531 44.242188 18.953125 46.445312 21.984375 47.875 C 25.023438 49.300781 28.460938 49.851562 32.296875 49.53125 C 36.117188 49.207031 39.40625 48.085938 42.15625 46.171875 C 44.914062 44.253906 46.945312 41.671875 48.25 38.421875 C 49.550781 35.179688 50.03125 31.515625 49.6875 27.421875 L 48.546875 13.875 L 10.28125 17.125 Z M 11.421875 30.671875 "/></g></g></g><g fill="#000000" fill-opacity="1"><g transform="translate(627.243213, 411.900032)"><g><path d="M 14 49.3125 C 13.3125 49.207031 12.34375 49.007812 11.09375 48.71875 L 16.03125 15.578125 C 12.84375 15.691406 10.15625 16.835938 7.96875 19.015625 C 5.78125 21.203125 4.410156 24.113281 3.859375 27.75 C 3.171875 32.394531 4.132812 36.445312 6.75 39.90625 L -0.125 44.296875 C -2.113281 42.054688 -3.472656 39.398438 -4.203125 36.328125 C -4.929688 33.265625 -5.023438 29.910156 -4.484375 26.265625 C -3.796875 21.617188 -2.265625 17.664062 0.109375 14.40625 C 2.484375 11.15625 5.460938 8.8125 9.046875 7.375 C 12.628906 5.945312 16.503906 5.539062 20.671875 6.15625 C 24.785156 6.769531 28.351562 8.257812 31.375 10.625 C 34.394531 12.988281 36.582031 15.96875 37.9375 19.5625 C 39.289062 23.164062 39.65625 27.050781 39.03125 31.21875 C 38.414062 35.332031 36.957031 38.875 34.65625 41.84375 C 32.351562 44.8125 29.414062 46.957031 25.84375 48.28125 C 22.28125 49.613281 18.332031 49.957031 14 49.3125 Z M 31.109375 30.03125 C 31.578125 26.863281 31.035156 24.046875 29.484375 21.578125 C 27.941406 19.109375 25.65625 17.40625 22.625 16.46875 L 19.046875 40.453125 C 22.160156 40.484375 24.828125 39.554688 27.046875 37.671875 C 29.273438 35.796875 30.628906 33.25 31.109375 30.03125 Z M 31.109375 30.03125 "/></g></g></g><g fill="#000000" fill-opacity="1"><g transform="translate(621.03797, 455.895476)"><g><path d="M 24.71875 58.15625 L -9.421875 26.609375 L -5.984375 16.890625 L 40.40625 13.875 L 36.921875 23.6875 L 2.625 25.625 L 27.921875 49.09375 Z M 24.71875 58.15625 "/></g></g></g><g fill="#000000" fill-opacity="1"><g transform="translate(608.005016, 494.719246)"><g><path d="M -5.546875 50.96875 C -6.140625 50.613281 -6.960938 50.066406 -8.015625 49.328125 L 9.015625 20.453125 C 6.003906 19.359375 3.078125 19.410156 0.234375 20.609375 C -2.609375 21.816406 -4.960938 24.003906 -6.828125 27.171875 C -9.210938 31.222656 -9.847656 35.34375 -8.734375 39.53125 L -16.765625 41.015625 C -17.765625 38.179688 -18.023438 35.207031 -17.546875 32.09375 C -17.066406 28.976562 -15.890625 25.832031 -14.015625 22.65625 C -11.628906 18.613281 -8.722656 15.523438 -5.296875 13.390625 C -1.878906 11.265625 1.753906 10.210938 5.609375 10.234375 C 9.472656 10.253906 13.21875 11.335938 16.84375 13.484375 C 20.425781 15.585938 23.171875 18.300781 25.078125 21.625 C 26.984375 24.957031 27.890625 28.539062 27.796875 32.375 C 27.703125 36.21875 26.582031 39.957031 24.4375 43.59375 C 22.320312 47.175781 19.640625 49.910156 16.390625 51.796875 C 13.140625 53.691406 9.613281 54.582031 5.8125 54.46875 C 2.007812 54.351562 -1.773438 53.1875 -5.546875 50.96875 Z M 17.546875 39.53125 C 19.171875 36.769531 19.726562 33.953125 19.21875 31.078125 C 18.71875 28.210938 17.238281 25.769531 14.78125 23.75 L 2.453125 44.640625 C 5.335938 45.835938 8.160156 45.984375 10.921875 45.078125 C 13.679688 44.179688 15.890625 42.332031 17.546875 39.53125 Z M 17.546875 39.53125 "/></g></g></g><g fill="#000000" fill-opacity="1"><g transform="translate(584.259394, 533.650388)"><g><path d="M 42.0625 42.390625 L 35.78125 50.171875 L -10.40625 12.890625 L -4.125 5.109375 Z M 42.0625 42.390625 "/></g></g></g><g fill="#000000" fill-opacity="1"><g transform="translate(573.388668, 549.308484)"><g><path d="M -19.375 16.984375 C -16.1875 14.066406 -12.679688 12.125 -8.859375 11.15625 C -5.046875 10.195312 -1.296875 10.289062 2.390625 11.4375 C 6.078125 12.582031 9.34375 14.707031 12.1875 17.8125 C 15.03125 20.914062 16.847656 24.34375 17.640625 28.09375 C 18.441406 31.84375 18.195312 35.578125 16.90625 39.296875 C 15.613281 43.023438 13.375 46.347656 10.1875 49.265625 C 6.96875 52.210938 3.445312 54.164062 -0.375 55.125 C -4.195312 56.09375 -7.9375 56.015625 -11.59375 54.890625 C -15.257812 53.773438 -18.515625 51.664062 -21.359375 48.5625 C -24.203125 45.457031 -26.035156 42.015625 -26.859375 38.234375 C -27.679688 34.460938 -27.441406 30.710938 -26.140625 26.984375 C -24.847656 23.265625 -22.59375 19.929688 -19.375 16.984375 Z M -13.59375 23.296875 C -16.300781 25.785156 -17.710938 28.742188 -17.828125 32.171875 C -17.941406 35.609375 -16.644531 38.800781 -13.9375 41.75 C -11.238281 44.695312 -8.175781 46.265625 -4.75 46.453125 C -1.320312 46.640625 1.742188 45.488281 4.453125 43 C 7.171875 40.507812 8.578125 37.554688 8.671875 34.140625 C 8.765625 30.734375 7.460938 27.554688 4.765625 24.609375 C 2.054688 21.660156 -1 20.082031 -4.40625 19.875 C -7.8125 19.664062 -10.875 20.804688 -13.59375 23.296875 Z M -13.59375 23.296875 "/></g></g></g><g fill="#000000" fill-opacity="1"><g transform="translate(540.183336, 580.822105)"><g><path d="M -4.328125 52.546875 C -7.929688 54.648438 -11.601562 55.742188 -15.34375 55.828125 C -19.09375 55.921875 -22.609375 55.007812 -25.890625 53.09375 C -29.171875 51.175781 -31.898438 48.351562 -34.078125 44.625 C -36.253906 40.882812 -37.375 37.101562 -37.4375 33.28125 C -37.507812 29.457031 -36.585938 25.9375 -34.671875 22.71875 C -32.753906 19.507812 -29.992188 16.851562 -26.390625 14.75 C -21.421875 11.851562 -16.519531 11.21875 -11.6875 12.84375 L -22.125 -5.0625 L -13.484375 -10.09375 L 15.859375 40.203125 L 7.640625 45 L 4.8125 40.171875 C 4.40625 42.753906 3.410156 45.09375 1.828125 47.1875 C 0.242188 49.289062 -1.804688 51.078125 -4.328125 52.546875 Z M -21.125 21.578125 C -24.300781 23.429688 -26.296875 26.015625 -27.109375 29.328125 C -27.929688 32.648438 -27.332031 36.039062 -25.3125 39.5 C -23.300781 42.945312 -20.648438 45.128906 -17.359375 46.046875 C -14.066406 46.972656 -10.832031 46.507812 -7.65625 44.65625 C -5.570312 43.445312 -3.976562 41.890625 -2.875 39.984375 C -1.78125 38.078125 -1.257812 35.960938 -1.3125 33.640625 C -1.363281 31.328125 -2.0625 29.019531 -3.40625 26.71875 C -4.75 24.414062 -6.414062 22.671875 -8.40625 21.484375 C -10.394531 20.304688 -12.488281 19.722656 -14.6875 19.734375 C -16.894531 19.753906 -19.039062 20.367188 -21.125 21.578125 Z M -21.125 21.578125 "/></g></g></g><g fill="#000000" fill-opacity="1"><g transform="translate(497.945624, 605.860621)"><g><path d="M -37.765625 34.6875 C -37.984375 34.019531 -38.238281 33.066406 -38.53125 31.828125 L -6.703125 21.328125 C -8.242188 18.523438 -10.476562 16.640625 -13.40625 15.671875 C -16.332031 14.703125 -19.546875 14.789062 -23.046875 15.9375 C -27.503906 17.40625 -30.691406 20.085938 -32.609375 23.984375 L -39.640625 19.796875 C -38.523438 17.015625 -36.757812 14.609375 -34.34375 12.578125 C -31.925781 10.546875 -28.96875 8.957031 -25.46875 7.8125 C -21.007812 6.332031 -16.789062 5.921875 -12.8125 6.578125 C -8.832031 7.242188 -5.398438 8.851562 -2.515625 11.40625 C 0.367188 13.96875 2.472656 17.242188 3.796875 21.234375 C 5.097656 25.179688 5.367188 29.035156 4.609375 32.796875 C 3.859375 36.554688 2.179688 39.847656 -0.421875 42.671875 C -3.035156 45.503906 -6.34375 47.578125 -10.34375 48.890625 C -14.289062 50.191406 -18.109375 50.484375 -21.796875 49.765625 C -25.484375 49.046875 -28.722656 47.390625 -31.515625 44.796875 C -34.304688 42.210938 -36.390625 38.84375 -37.765625 34.6875 Z M -12.84375 41.296875 C -9.800781 40.296875 -7.523438 38.546875 -6.015625 36.046875 C -4.515625 33.554688 -4.019531 30.738281 -4.53125 27.59375 L -27.5625 35.1875 C -26.1875 37.988281 -24.160156 39.960938 -21.484375 41.109375 C -18.816406 42.253906 -15.9375 42.316406 -12.84375 41.296875 Z M -12.84375 41.296875 "/></g></g></g><g fill="#000000" fill-opacity="1"><g transform="translate(455.067296, 619.693465)"><g><path d="M -10.390625 38.484375 C -12.578125 43.347656 -17.253906 46.320312 -24.421875 47.40625 L -25.84375 38 C -24.976562 38.03125 -24.203125 37.992188 -23.515625 37.890625 C -19.671875 37.304688 -16.835938 35.726562 -15.015625 33.15625 C -13.203125 30.59375 -12.613281 27.203125 -13.25 22.984375 L -16.375 2.5 L -6.484375 0.984375 L -0.046875 43.21875 L -9.453125 44.65625 Z M -10.390625 38.484375 "/></g></g></g><g fill="#000000" fill-opacity="1"><g transform="translate(424.817451, 624.085455)"><g><path d="M -9.78125 -0.125 C -7.976562 -0.207031 -6.40625 0.347656 -5.0625 1.546875 C -3.726562 2.742188 -3.019531 4.300781 -2.9375 6.21875 C -2.84375 8.1875 -3.394531 9.8125 -4.59375 11.09375 C -5.789062 12.375 -7.320312 13.054688 -9.1875 13.140625 C -11.050781 13.222656 -12.632812 12.679688 -13.9375 11.515625 C -15.238281 10.347656 -15.9375 8.78125 -16.03125 6.8125 C -16.113281 4.894531 -15.546875 3.28125 -14.328125 1.96875 C -13.109375 0.65625 -11.59375 -0.0390625 -9.78125 -0.125 Z M -9.78125 -0.125 "/></g></g></g></svg>