<?xml version="1.0" standalone="no"?>
<!DOCTYPE svg PUBLIC "-//W3C//DTD SVG 20010904//EN"
 "http://www.w3.org/TR/2001/REC-SVG-20010904/DTD/svg10.dtd">
<svg version="1.0" xmlns="http://www.w3.org/2000/svg"
 width="1080.000000pt" height="1080.000000pt" viewBox="0 0 1080.000000 1080.000000"
 preserveAspectRatio="xMidYMid meet">
<metadata>
Created by potrace 1.16, written by Peter Selinger 2001-2019
</metadata>
<g transform="translate(0.000000,1080.000000) scale(0.100000,-0.100000)"
fill="#000000" stroke="none">
<path d="M5472 8615 c-66 -20 -107 -58 -143 -131 -30 -60 -33 -76 -33 -153 0
-69 5 -97 23 -139 65 -145 255 -205 399 -127 42 23 102 85 102 106 0 3 -22 16
-50 29 l-50 23 -21 -27 c-82 -104 -241 -59 -273 77 -6 24 -4 28 11 23 10 -2
98 -8 196 -12 l177 -6 0 64 c0 135 -55 230 -156 267 -62 24 -120 26 -182 6z
m157 -121 c26 -21 51 -74 51 -108 0 -10 -236 -3 -247 8 -12 12 38 96 66 111
42 23 95 19 130 -11z"/>
<path d="M4928 8590 c-39 -12 -81 -44 -98 -74 -18 -34 -27 -33 -35 5 l-7 32
-56 -7 c-31 -4 -57 -8 -58 -9 -4 -3 113 -768 118 -772 6 -6 103 6 116 14 7 4
3 55 -12 154 l-22 147 20 -20 c110 -102 297 -39 342 116 31 107 1 265 -66 346
-55 66 -154 95 -242 68z m86 -124 c46 -19 84 -73 97 -137 19 -96 -18 -178 -90
-200 -98 -29 -181 60 -181 192 0 63 24 112 69 138 43 24 60 26 105 7z"/>
<path d="M5941 8533 c-14 -53 -109 -464 -113 -487 -2 -16 7 -21 56 -33 33 -7
63 -10 66 -6 4 5 21 73 39 153 49 216 78 270 145 270 44 0 66 -29 66 -87 0
-47 5 -49 83 -37 l37 7 0 54 c0 106 -51 163 -145 163 -38 0 -60 -7 -89 -26
l-39 -27 6 36 c5 34 5 35 -38 46 -62 16 -63 15 -74 -26z"/>
<path d="M3763 8449 l-53 -30 24 -47 c58 -113 347 -647 355 -655 8 -8 123 43
119 53 -20 45 -382 710 -387 710 -3 0 -30 -14 -58 -31z"/>
<path d="M4310 8441 c-93 -30 -172 -103 -191 -175 -30 -109 13 -258 97 -342
98 -99 274 -93 379 12 58 58 70 89 70 184 0 72 -4 94 -28 145 -59 126 -123
176 -235 181 -37 2 -78 0 -92 -5z m120 -126 c53 -28 110 -131 110 -201 0 -65
-52 -128 -115 -140 -42 -7 -67 0 -105 33 -70 59 -102 196 -60 261 35 56 112
77 170 47z"/>
<path d="M6895 8089 c-82 -198 -150 -364 -150 -369 0 -10 130 -110 144 -110 7
0 344 280 450 374 l23 21 -15 -35 c-8 -19 -65 -147 -127 -283 -62 -136 -111
-249 -109 -251 44 -34 144 -106 148 -106 5 0 294 232 550 442 l74 61 -24 18
c-13 10 -41 30 -61 45 l-36 26 -232 -197 c-127 -108 -233 -195 -235 -193 -2 1
53 127 121 278 l124 275 -31 26 c-17 15 -50 41 -74 58 l-44 31 -218 -186
c-120 -103 -226 -194 -236 -203 -17 -14 -17 -13 -9 9 6 14 56 129 112 255 57
127 109 244 116 262 13 31 13 31 -41 72 -30 23 -58 41 -62 41 -4 0 -75 -163
-158 -361z"/>
<path d="M3605 8061 c-215 -55 -272 -292 -112 -468 89 -96 195 -126 311 -87
61 21 149 101 171 157 15 36 23 142 12 153 -2 3 -27 -1 -56 -8 l-51 -11 0 -41
c0 -73 -59 -137 -138 -152 -24 -5 -45 0 -79 18 -26 13 -48 28 -50 35 -2 6 60
57 139 114 79 56 147 106 152 110 12 10 -27 71 -70 108 -69 61 -160 90 -229
72z m78 -122 c12 -6 32 -21 44 -32 l23 -20 -93 -68 c-50 -38 -97 -68 -104 -69
-17 0 -36 67 -29 105 13 69 99 114 159 84z"/>
<path d="M6282 8017 c-25 -26 -30 -83 -9 -110 19 -26 69 -37 104 -22 34 14 43
31 43 80 0 66 -92 101 -138 52z"/>
<path d="M3192 7740 l-42 -48 66 -114 c37 -62 89 -150 115 -195 l48 -83 -205
103 -206 102 -43 -50 c-24 -27 -42 -51 -40 -53 4 -4 361 -171 467 -219 l59
-26 55 54 c29 29 54 59 54 65 0 17 -266 508 -277 511 -4 1 -27 -20 -51 -47z"/>
<path d="M7686 7446 c-112 -42 -207 -144 -226 -245 -31 -164 101 -333 262
-335 31 0 60 2 63 6 4 4 2 29 -5 56 l-11 50 -56 4 c-50 4 -60 9 -94 45 -57 62
-63 120 -18 193 l21 35 34 -40 c18 -22 71 -90 116 -152 46 -62 86 -112 89
-113 3 0 26 16 51 36 139 108 158 280 44 396 -20 21 -51 45 -69 54 -44 23
-152 28 -201 10z m165 -121 c33 -18 69 -69 69 -101 0 -19 -57 -120 -64 -113
-25 29 -146 193 -146 199 0 11 49 28 83 29 15 1 41 -6 58 -14z"/>
<path d="M2792 7227 c-84 -32 -150 -125 -159 -227 -5 -48 -1 -67 20 -113 67
-147 256 -234 394 -182 153 59 238 259 162 384 l-19 32 -46 -32 c-33 -23 -44
-35 -39 -47 25 -62 27 -75 16 -113 -16 -52 -71 -106 -117 -115 -20 -4 -53 -1
-75 5 l-38 12 96 152 c53 83 98 159 100 167 3 12 -14 26 -58 50 -51 27 -76 34
-133 36 -41 2 -85 -2 -104 -9z m117 -118 c17 -6 31 -14 31 -17 0 -10 -123
-202 -130 -202 -13 0 -39 35 -55 74 -19 44 -8 90 28 123 37 34 72 41 126 22z"/>
<path d="M8055 6968 c-192 -93 -354 -174 -359 -179 -13 -12 29 -99 48 -99 8 0
26 4 40 9 l25 10 -16 -37 c-37 -89 10 -214 100 -260 154 -80 415 40 457 210
25 97 -26 200 -120 241 l-44 20 141 68 142 67 -26 61 c-14 34 -29 61 -32 60
-3 0 -163 -77 -356 -171z m110 -172 c64 -42 76 -124 28 -185 -37 -46 -124 -91
-177 -91 -81 0 -143 66 -133 141 15 112 190 195 282 135z"/>
<path d="M2363 6743 c-59 -20 -134 -91 -170 -160 -28 -54 -123 -308 -123 -330
0 -14 720 -267 730 -256 4 4 31 78 61 163 48 139 53 164 54 240 0 73 -4 93
-28 142 -46 94 -149 169 -278 203 -69 19 -192 18 -246 -2z m250 -154 c106 -41
176 -125 177 -212 0 -38 -44 -183 -61 -201 -7 -8 -471 146 -491 163 -10 8 43
151 70 188 67 94 168 114 305 62z"/>
<path d="M8365 6152 c-203 -30 -372 -56 -374 -58 -2 -2 8 -80 23 -174 37 -246
86 -335 215 -393 63 -28 193 -34 284 -13 178 42 274 146 285 313 5 84 -35 384
-52 382 -6 -1 -177 -26 -381 -57z m304 -191 c12 -96 8 -136 -20 -193 -36 -72
-146 -121 -270 -120 -104 0 -185 54 -213 141 -18 53 -38 173 -31 180 4 3 450
73 511 80 7 1 16 -34 23 -88z"/>
<path d="M2206 5764 c-13 -101 -14 -99 92 -201 l97 -94 -55 5 c-30 3 -133 8
-227 12 l-173 7 0 -67 0 -66 53 0 c28 -1 207 -9 397 -19 190 -10 348 -17 353
-14 4 2 7 30 7 62 0 69 -3 71 -115 71 -64 0 -71 2 -102 32 l-33 32 129 62 128
61 8 68 c4 36 4 70 0 73 -4 4 -85 -33 -181 -83 l-174 -90 -98 98 -99 99 -7
-48z"/>
<path d="M8180 5398 c-48 -25 -73 -46 -97 -81 -81 -121 -62 -304 40 -378 22
-16 44 -26 48 -23 5 3 19 24 30 46 l21 40 -38 39 c-30 31 -38 47 -42 87 -8 86
43 156 123 169 26 4 35 2 35 -8 0 -8 -7 -93 -15 -189 -8 -96 -12 -177 -9 -180
3 -3 40 -5 83 -4 166 2 269 97 271 250 0 105 -52 189 -149 236 -35 17 -69 23
-141 26 -92 4 -97 3 -160 -30z m313 -158 c21 -23 27 -40 27 -73 0 -67 -34
-103 -113 -117 -32 -6 -37 -5 -33 9 3 9 8 66 11 128 l7 112 37 -14 c20 -9 48
-29 64 -45z"/>
<path d="M2526 5273 c-3 -8 -6 -37 -6 -64 0 -44 2 -49 23 -49 40 -1 105 -37
121 -69 55 -106 -37 -206 -189 -206 -86 1 -130 21 -151 72 -26 61 3 110 94
159 5 2 -41 114 -47 114 -4 0 -31 -15 -61 -32 -42 -26 -61 -45 -83 -88 -25
-48 -28 -63 -24 -120 11 -161 125 -251 303 -237 128 10 232 73 270 163 19 45
18 165 -1 211 -9 20 -27 52 -42 71 -43 57 -193 111 -207 75z"/>
<path d="M2725 4780 l-28 -29 24 -20 c21 -17 22 -21 9 -34 -8 -8 -76 -36 -150
-62 -74 -26 -147 -56 -163 -67 -72 -51 -92 -177 -45 -280 46 -100 124 -154
213 -146 l39 3 -3 55 c-1 30 -5 58 -7 62 -3 5 -23 8 -44 8 -101 0 -157 142
-77 195 13 8 32 13 41 9 9 -3 37 -46 62 -94 74 -143 151 -198 245 -173 l37 10
-9 -31 c-13 -45 -12 -45 26 -39 29 5 39 1 65 -25 37 -38 38 -56 3 -91 -26 -25
-242 -151 -260 -151 -4 0 -25 31 -47 69 -21 38 -42 74 -46 81 -5 9 -18 6 -48
-9 -22 -11 -43 -24 -46 -29 -3 -5 15 -43 40 -86 24 -43 44 -81 44 -85 0 -3
-31 -23 -70 -44 -38 -21 -71 -41 -74 -45 -2 -4 15 -29 39 -56 l42 -49 67 37
66 37 20 -33 c11 -18 21 -37 23 -43 3 -8 70 21 95 41 2 1 -6 20 -17 43 -12 22
-21 42 -21 44 0 3 66 42 146 88 170 97 194 123 194 207 0 96 -65 178 -150 189
-22 3 -40 6 -40 7 0 1 9 19 20 41 24 47 25 96 4 158 -17 50 -77 112 -118 123
l-24 6 24 23 c47 48 40 127 -17 184 -38 38 -48 39 -84 1z m46 -265 c60 -32 90
-126 52 -167 -23 -25 -69 -23 -98 6 -23 23 -85 136 -85 155 0 23 90 27 131 6z"/>
<path d="M8320 4794 c-129 -7 -257 -14 -284 -16 l-49 -3 -19 -69 c-10 -38 -18
-75 -16 -83 2 -7 111 -85 243 -173 l240 -160 17 57 c10 32 18 63 18 68 0 6
-83 62 -184 125 -102 63 -182 117 -179 120 2 3 102 7 220 10 l216 5 18 65 c10
36 18 66 19 68 0 1 -6 1 -12 1 -7 -1 -119 -8 -248 -15z"/>
<path d="M7894 4347 c-147 -71 -214 -294 -121 -403 l22 -25 42 36 42 36 -19
32 c-65 106 43 250 168 222 l30 -6 -83 -175 -84 -175 57 -27 c47 -22 71 -27
137 -27 69 0 86 4 126 27 58 34 105 105 120 180 23 115 -41 227 -166 291 -49
25 -75 31 -140 34 -69 3 -87 1 -131 -20z m294 -193 c38 -46 43 -83 21 -135
-22 -48 -71 -73 -125 -63 -19 3 -36 10 -39 14 -6 10 93 220 104 220 5 0 23
-16 39 -36z"/>
<path d="M7606 3915 l-36 -54 243 -164 c371 -251 428 -289 431 -285 23 29 66
99 66 105 -1 6 -603 416 -654 445 -9 5 -25 -10 -50 -47z"/>
<path d="M3065 3811 c-49 -22 -99 -77 -115 -127 -19 -56 -6 -121 50 -253 27
-65 50 -131 50 -145 0 -14 -12 -40 -28 -57 -49 -54 -128 -39 -172 34 -27 43
-25 87 5 131 14 20 25 40 25 44 -1 4 -23 24 -51 45 -58 46 -68 42 -105 -38
-57 -121 2 -275 135 -353 37 -22 58 -27 111 -27 83 0 148 35 191 103 42 66 40
130 -7 242 -69 163 -76 188 -64 226 21 64 98 82 162 39 92 -63 112 -189 41
-267 -19 -21 -12 -31 49 -80 38 -30 39 -30 60 -12 39 35 68 113 68 185 0 56
-6 77 -35 137 -39 77 -102 142 -170 173 -53 24 -147 24 -200 0z"/>
<path d="M7476 3715 c-87 -31 -168 -132 -181 -225 -23 -164 144 -344 320 -343
193 0 326 217 239 391 -70 141 -246 224 -378 177z m165 -143 c81 -52 130 -135
115 -195 -16 -64 -89 -114 -149 -103 -86 16 -187 121 -187 193 0 115 117 170
221 105z"/>
<path d="M6996 3554 l-47 -35 38 -52 c20 -29 56 -77 78 -107 23 -30 44 -59 47
-65 4 -6 -17 -10 -56 -10 -75 0 -130 -31 -173 -97 -24 -36 -28 -51 -28 -117 0
-63 5 -86 28 -133 39 -79 107 -152 172 -184 111 -54 241 -16 293 86 12 24 22
60 22 79 l0 35 29 -28 c32 -31 31 -31 83 4 22 14 36 31 33 38 -10 28 -451 621
-461 622 -6 0 -32 -16 -58 -36z m157 -363 c65 -25 147 -136 147 -199 0 -44
-30 -89 -75 -113 -39 -21 -47 -22 -83 -11 -83 25 -153 115 -154 196 -1 52 19
89 65 116 35 22 63 25 100 11z"/>
<path d="M3398 3235 c-16 -18 -28 -35 -28 -39 0 -9 253 -216 265 -216 5 0 23
16 39 36 24 30 26 38 15 48 -51 47 -250 206 -256 205 -4 0 -20 -15 -35 -34z"/>
<path d="M3690 2882 c-117 -180 -215 -334 -217 -343 -5 -19 96 -87 106 -71
176 266 431 663 431 669 0 6 -10 15 -22 21 -13 6 -37 20 -54 31 l-31 21 -213
-328z"/>
<path d="M3875 2753 c-104 -191 -191 -350 -193 -354 -2 -5 23 -21 56 -38 l59
-30 191 349 c106 191 192 352 192 357 0 8 -94 63 -108 63 -4 0 -92 -157 -197
-347z"/>
<path d="M6536 3014 c-100 -32 -166 -94 -192 -182 -21 -69 -13 -82 52 -82 52
0 54 1 54 28 0 33 31 86 63 107 69 45 141 38 197 -20 l34 -35 -65 -29 c-273
-124 -282 -129 -274 -158 10 -41 65 -117 109 -152 72 -57 174 -65 260 -20 117
60 165 169 132 300 -50 193 -206 296 -370 243z m252 -330 c2 -39 -2 -56 -18
-77 -31 -39 -77 -60 -114 -53 -29 6 -96 60 -96 79 0 10 201 107 215 103 6 -1
11 -25 13 -52z"/>
<path d="M4125 2754 c-55 -141 -101 -260 -103 -263 -2 -7 117 -55 123 -49 2 2
32 75 66 163 73 187 79 198 125 220 38 18 92 9 125 -21 32 -29 22 -79 -50
-264 l-69 -175 46 -22 c26 -12 55 -22 64 -22 12 -1 35 45 89 182 104 262 105
333 5 392 -58 34 -129 42 -180 21 -50 -21 -48 -21 -41 18 7 36 13 31 -90 72
-6 2 -55 -111 -110 -252z"/>
<path d="M6200 2863 c-30 -8 -56 -16 -58 -18 -2 -2 15 -74 38 -162 23 -87 42
-179 43 -206 2 -106 -94 -148 -139 -60 -10 21 -20 40 -21 41 -3 7 -103 -53
-103 -61 0 -20 42 -87 70 -111 38 -31 69 -40 117 -33 50 9 83 33 102 78 9 21
18 39 21 39 3 0 11 -14 17 -31 11 -28 15 -30 45 -24 84 19 83 -9 4 294 -38
149 -73 271 -76 270 -3 0 -30 -8 -60 -16z"/>
<path d="M4971 2731 c-5 -25 -17 -90 -27 -143 -9 -53 -20 -102 -25 -109 -6
-10 -33 -8 -120 9 -63 12 -117 18 -121 14 -4 -4 -10 -30 -13 -58 l-7 -50 117
-21 c65 -12 119 -23 121 -25 3 -4 -34 -199 -39 -204 -3 -3 -218 34 -289 50
-13 3 -18 -9 -27 -57 -6 -33 -9 -62 -7 -64 8 -8 437 -85 442 -80 9 9 146 748
140 754 -3 3 -34 11 -70 17 l-65 13 -10 -46z"/>
<path d="M5715 2755 c-74 -73 32 -179 115 -116 34 27 35 95 1 122 -33 27 -86
25 -116 -6z"/>
</g>
</svg>
